<svg width="36" height="36" viewBox="0 0 36 36" fill="none" xmlns="http://www.w3.org/2000/svg">
<circle cx="18" cy="18" r="18" fill="#B9A789"/>
<path d="M10 13.3684C10 12.9036 10.364 12.5263 10.7936 12.5263H25.2064C25.6448 12.5263 26 12.9011 26 13.3684V25.1579C26 25.6227 25.636 26 25.2064 26H10.7936C10.6889 25.9998 10.5853 25.9778 10.4887 25.9353C10.3921 25.8928 10.3044 25.8307 10.2307 25.7525C10.1569 25.6742 10.0986 25.5814 10.059 25.4794C10.0194 25.3774 9.99938 25.2681 10 25.1579V13.3684ZM11.6 14.2105V24.3158H24.4V14.2105H11.6ZM19.6 21.7895C20.2365 21.7895 20.847 21.5233 21.2971 21.0495C21.7471 20.5758 22 19.9332 22 19.2632C22 18.5931 21.7471 17.9506 21.2971 17.4768C20.847 17.003 20.2365 16.7368 19.6 16.7368C18.9635 16.7368 18.353 17.003 17.903 17.4768C17.4529 17.9506 17.2 18.5931 17.2 19.2632C17.2 19.9332 17.4529 20.5758 17.903 21.0495C18.353 21.5233 18.9635 21.7895 19.6 21.7895ZM19.6 23.4737C18.5391 23.4737 17.5217 23.0301 16.7716 22.2404C16.0214 21.4508 15.6 20.3799 15.6 19.2632C15.6 18.1465 16.0214 17.0755 16.7716 16.2859C17.5217 15.4962 18.5391 15.0526 19.6 15.0526C20.6609 15.0526 21.6783 15.4962 22.4284 16.2859C23.1786 17.0755 23.6 18.1465 23.6 19.2632C23.6 20.3799 23.1786 21.4508 22.4284 22.2404C21.6783 23.0301 20.6609 23.4737 19.6 23.4737ZM11.6 10H16.4V11.6842H11.6V10Z" fill="white"/>
</svg>
