<svg width="36" height="36" viewBox="0 0 36 36" fill="none" xmlns="http://www.w3.org/2000/svg">
<circle cx="18" cy="18" r="18" fill="#C191BF"/>
<path d="M17.1429 19.3649V10H24V11.7779H18.8571V22.4451C18.857 23.2278 18.6078 23.9885 18.1482 24.6094C17.6887 25.2303 17.0444 25.6765 16.3154 25.879C15.5864 26.0814 14.8133 26.0288 14.1161 25.7291C13.4189 25.4295 12.8364 24.8997 12.4592 24.2218C12.0819 23.5439 11.9308 22.7559 12.0294 21.9799C12.1279 21.2039 12.4707 20.4833 13.0043 19.9298C13.538 19.3764 14.2329 19.0211 14.9812 18.9189C15.7294 18.8168 16.4893 18.9736 17.1429 19.3649ZM15.4286 24.2229C15.8832 24.2229 16.3193 24.0356 16.6408 23.7022C16.9622 23.3688 17.1429 22.9166 17.1429 22.4451C17.1429 21.9735 16.9622 21.5213 16.6408 21.1879C16.3193 20.8545 15.8832 20.6672 15.4286 20.6672C14.9739 20.6672 14.5379 20.8545 14.2164 21.1879C13.8949 21.5213 13.7143 21.9735 13.7143 22.4451C13.7143 22.9166 13.8949 23.3688 14.2164 23.7022C14.5379 24.0356 14.9739 24.2229 15.4286 24.2229Z" fill="white"/>
</svg>
