<svg width="36" height="36" viewBox="0 0 36 36" fill="none" xmlns="http://www.w3.org/2000/svg">
<circle cx="18" cy="18" r="18" fill="#97B997"/>
<path d="M18 10C22.4184 10 26 13.5816 26 18C26 22.4184 22.4184 26 18 26C13.5816 26 10 22.4184 10 18C10 13.5816 13.5816 10 18 10ZM19.336 21.2H16.664L15.56 22.7176L16.0032 24.0824C16.6477 24.2935 17.3218 24.4007 18 24.4C18.6968 24.4 19.368 24.288 19.9968 24.0824L20.4392 22.7176L19.3352 21.2H19.336ZM12.6352 17.0976L11.6016 17.8472L11.6 18C11.6 19.384 12.0392 20.6648 12.7856 21.712H14.3136L15.372 20.256L14.5496 17.72L12.6352 17.0976ZM23.3648 17.0976L21.4504 17.72L20.628 20.256L21.6856 21.712H23.2136C23.9871 20.6289 24.4019 19.3309 24.4 18L24.3976 17.848L23.3648 17.0976ZM18 16.0288L16.1248 17.3904L16.8416 19.6H19.1576L19.8744 17.3904L18 16.0288ZM19.8328 11.8664L18.8 12.6184V14.632L20.9552 16.1976L22.7464 15.616L23.1896 14.2536C22.3637 13.1103 21.1839 12.2712 19.8328 11.8664ZM16.1664 11.8664C14.8155 12.2716 13.636 13.1109 12.8104 14.2544L13.2536 15.616L15.0448 16.1976L17.2 14.632V12.6184L16.1664 11.8664Z" fill="white"/>
</svg>
