<svg width="36" height="36" viewBox="0 0 36 36" fill="none" xmlns="http://www.w3.org/2000/svg">
<circle cx="18" cy="18" r="18" fill="#7195C0"/>
<path d="M23.3333 26H12.6667C12.4899 26 12.3203 25.9157 12.1953 25.7657C12.0702 25.6157 12 25.4122 12 25.2V10.8C12 10.5878 12.0702 10.3843 12.1953 10.2343C12.3203 10.0843 12.4899 10 12.6667 10H23.3333C23.5101 10 23.6797 10.0843 23.8047 10.2343C23.9298 10.3843 24 10.5878 24 10.8V25.2C24 25.4122 23.9298 25.6157 23.8047 25.7657C23.6797 25.9157 23.5101 26 23.3333 26ZM22.6667 24.4V11.6H13.3333V24.4H22.6667ZM14.6667 13.2H17.3333V16.4H14.6667V13.2ZM14.6667 18H21.3333V19.6H14.6667V18ZM14.6667 21.2H21.3333V22.8H14.6667V21.2ZM18.6667 14H21.3333V15.6H18.6667V14Z" fill="white"/>
</svg>
