<svg width="36" height="36" viewBox="0 0 36 36" fill="none" xmlns="http://www.w3.org/2000/svg">
<circle cx="18" cy="18" r="18" fill="#5C302B"/>
<path fill-rule="evenodd" clip-rule="evenodd" d="M21.6984 25.7778C22.9165 24.5586 22.7642 22.9753 22.2682 20.9947C21.556 18.1425 22.4745 17.795 22.7102 14.7883C23.1375 9.3763 21.5462 10.27 21.3301 6C19.5864 8.48809 21.443 11.8258 20.7456 13.718C20.333 12.4547 20.5147 10.739 19.5324 9.4756C19.8762 11.5885 18.4764 12.9677 19.5766 15.5993C20.7947 18.5066 22.1208 21.5519 21.3694 24.0621C20.7456 22.0871 19.4587 20.3603 17.5383 20.6527C14.9057 21.0499 14.3016 23.2621 13 24.4758C14.0904 25.9488 13.8399 28.139 16.0697 29.0989C18.1228 29.9816 20.4804 29.3141 21.3202 26.6881C21.5953 27.3391 21.61 28.4645 21.9293 29.2093C22.2534 29.9596 22.7986 30.3347 23 29.612C22.057 28.5417 22.2878 27.0908 21.7033 25.7723L21.6984 25.7778Z" fill="white"/>
</svg>
