<svg width="36" height="36" viewBox="0 0 36 36" fill="none" xmlns="http://www.w3.org/2000/svg">
<circle cx="18" cy="18" r="18" fill="#F2645C"/>
<path d="M11.7778 20.9474V26H10V10H18.3396C18.5046 10.0001 18.6663 10.0437 18.8067 10.1259C18.947 10.2082 19.0605 10.3258 19.1342 10.4657L19.7778 11.6842H25.1111C25.3469 11.6842 25.573 11.7729 25.7397 11.9309C25.9064 12.0888 26 12.303 26 12.5263V21.7895C26 22.0128 25.9064 22.227 25.7397 22.3849C25.573 22.5429 25.3469 22.6316 25.1111 22.6316H19.4382C19.2732 22.6315 19.1114 22.5879 18.9711 22.5056C18.8307 22.4234 18.7173 22.3058 18.6436 22.1659L18 20.9474H11.7778ZM11.7778 11.6842V19.2632H19.0987L19.9876 20.9474H24.2222V13.3684H18.6791L17.7902 11.6842H11.7778Z" fill="white"/>
</svg>
