<svg width="36" height="36" viewBox="0 0 36 36" fill="none" xmlns="http://www.w3.org/2000/svg">
<circle cx="18" cy="18" r="18" fill="#7881B0"/>
<path d="M18 10C22.4184 10 26 13.5816 26 18C26 22.4184 22.4184 26 18 26C13.5816 26 10 22.4184 10 18C10 13.5816 13.5816 10 18 10ZM18.2928 19.0928L15.5176 23.9008C16.644 24.3721 17.8811 24.5136 19.0848 24.3088C18.8722 22.8139 19.0898 21.2894 19.712 19.9136L18.2928 19.0928ZM21.1072 20.7176C20.6921 21.7002 20.5306 22.7715 20.6376 23.8328C21.6086 23.3925 22.4546 22.7172 23.0992 21.868L21.1072 20.7176ZM15.4872 17.4736C14.6069 18.7004 13.3958 19.6516 11.9952 20.216C12.4183 21.361 13.1597 22.3613 14.132 23.0992L16.9072 18.2928L15.4872 17.4736ZM24.3696 17.3696L24.1632 17.4656C23.2762 17.9037 22.5037 18.5428 21.9072 19.332L23.9008 20.4832C24.3149 19.5006 24.4761 18.4298 24.3696 17.3688V17.3696ZM11.6 18C11.6 18.2128 11.6104 18.424 11.6304 18.6312C12.6028 18.1936 13.4496 17.5185 14.0928 16.668L12.0992 15.5176C11.7686 16.3034 11.5989 17.1475 11.6 18ZM21.868 12.9008L19.0928 17.7072L20.5128 18.5272C21.3931 17.2996 22.6046 16.3479 24.0056 15.7832C23.6122 14.721 22.9445 13.7819 22.0704 13.0616L21.868 12.9008ZM18 11.6C17.6296 11.6 17.2672 11.632 16.9144 11.692C17.1274 13.1869 16.9098 14.7115 16.2872 16.0872L17.7072 16.9072L20.4824 12.0992C19.6966 11.7686 18.8525 11.5989 18 11.6ZM15.3624 12.168L15.2096 12.2384C14.302 12.6796 13.511 13.3283 12.9008 14.132L14.8928 15.2824C15.3078 14.3 15.4693 13.2291 15.3624 12.168Z" fill="white"/>
</svg>
