<svg width="36" height="36" viewBox="0 0 36 36" fill="none" xmlns="http://www.w3.org/2000/svg">
<circle cx="18" cy="18" r="18" fill="#F29261"/>
<path d="M12.522 11.328L18 10L23.478 11.328C23.626 11.3639 23.7584 11.4538 23.8533 11.5828C23.9482 11.7119 24 11.8724 24 12.0378V19.3011C24 20.0194 23.8373 20.7267 23.5266 21.36C23.2158 21.9933 22.7666 22.5332 22.2187 22.9316L18 26L13.7813 22.9316C13.2335 22.5333 12.7843 21.9935 12.4736 21.3603C12.1628 20.7271 12.0002 20.02 12 19.3018V12.0378C12 11.8724 12.0518 11.7119 12.1467 11.5828C12.2416 11.4538 12.374 11.3639 12.522 11.328ZM13.3333 12.6211V19.3011C13.3333 19.78 13.4417 20.2514 13.6488 20.6737C13.856 21.0959 14.1554 21.4558 14.5207 21.7215L18 24.2524L21.4793 21.7215C21.8445 21.4559 22.1439 21.0961 22.351 20.674C22.5581 20.2519 22.6665 19.7806 22.6667 19.3018V12.6211L18 11.4909L13.3333 12.6211ZM17.3333 16.5455V14.3636H18.6667V16.5455H20.6667V18H18.6667V20.1818H17.3333V18H15.3333V16.5455H17.3333Z" fill="white"/>
</svg>
